<svg xmlns="http://www.w3.org/2000/svg" viewBox="0 0 231.78 68.98"><defs><style>.cls-1{fill:#082841;}</style></defs><title>Finctory_LOGO_淺色底用</title><g id="圖層_2" data-name="圖層 2"><g id="LOGO"><path class="cls-1" d="M5,18.74V16.66Q5,8.25,8.57,4.13A11,11,0,0,1,17.15,0a23.45,23.45,0,0,1,5.11.68V7.42a9.4,9.4,0,0,0-3.18-.61c-2.7,0-4.58.72-5.62,2.16s-1.57,4-1.57,7.69v2.08h6.2V25h-6.2V46.67A6.89,6.89,0,0,1,5,53.56H5V25H0V23.73a5,5,0,0,1,5-5Z"/><path class="cls-1" d="M33.14,4.57a4.06,4.06,0,0,1,2.92,1.18,3.83,3.83,0,0,1,1.21,2.87,3.91,3.91,0,0,1-1.21,2.88,4,4,0,0,1-2.92,1.21,3.82,3.82,0,0,1-2.8-1.23,3.94,3.94,0,0,1,0-5.68A3.82,3.82,0,0,1,33.14,4.57Zm-3.4,14.17h6.89V46.68a6.89,6.89,0,0,1-6.89,6.88h0Z"/><path class="cls-1" d="M53.22,18.74v3c3.07-3.41,6.57-3.65,10.48-3.65a11.59,11.59,0,0,1,6.06,1.68A10.92,10.92,0,0,1,74,24.36c1,2,1.45,5.05,1.45,9.29v13a6.88,6.88,0,0,1-6.89,6.89h0V33.73q0-5.34-1.62-7.63t-5.45-2.29q-4.89,0-8.29,4.88V46.52a7,7,0,0,1-7,7h0V18.74Z"/><path class="cls-1" d="M105.8,44.82v6.81A22.15,22.15,0,0,1,97,53.56a14.21,14.21,0,0,1-11.3-4.84q-4.21-4.84-4.22-13t4.1-13.24a13.23,13.23,0,0,1,10.79-5,15.82,15.82,0,0,1,4.19.51,25.22,25.22,0,0,1,4.57,1.91v7.35q-4.52-3.33-8.39-3.33a8.1,8.1,0,0,0-6.63,3.27,13,13,0,0,0-2.59,8.35A12.27,12.27,0,0,0,90.33,44a9.64,9.64,0,0,0,7.56,3.14A17.65,17.65,0,0,0,105.8,44.82Z"/><path class="cls-1" d="M153,16.4a13.08,13.08,0,0,1,10.71,5.43Q168,27.28,168,35.49a20.22,20.22,0,0,1-4.32,13.25A13.54,13.54,0,0,1,152.76,54a13.06,13.06,0,0,1-10.62-5.35,20.81,20.81,0,0,1-4.26-13.37q0-8.1,4.31-13.5A13.31,13.31,0,0,1,153,16.4ZM152.7,23a7.92,7.92,0,0,0-6.6,3.44,14.28,14.28,0,0,0-2.58,8.79,13.57,13.57,0,0,0,2.64,8.64,8.25,8.25,0,0,0,6.78,3.34,8.15,8.15,0,0,0,6.73-3.38,13.79,13.79,0,0,0,2.63-8.69,13.59,13.59,0,0,0-2.73-8.7A8.43,8.43,0,0,0,152.7,23Z"/><path class="cls-1" d="M127.15,47.47c-3.3,0-5-2-5-5.87V24.86h5.25a5.78,5.78,0,0,0,5.78-5.77v-.33h-11V11.7H115.3v6.78a6.13,6.13,0,0,0-5.5,6.06h5.5V40a29.4,29.4,0,0,0,.44,6.3A9.56,9.56,0,0,0,116.82,49a7.65,7.65,0,0,0,1.63,1.84,11.58,11.58,0,0,0,7.87,2.71A17.67,17.67,0,0,0,135,51.37V45.05A15.62,15.62,0,0,1,127.15,47.47Z"/><path class="cls-1" d="M228.24,16.4a6.52,6.52,0,0,0-5.93,3.81L215,36l1.51-3.14L215,36h0l-5.14,10.69L199.42,69h2.77a7.76,7.76,0,0,0,7-4.45L231.78,16.4Z"/><path class="cls-1" d="M212.79,32.15,205.94,19.5h-7.85l12.12,22.66,2.65-5.45A5.05,5.05,0,0,0,212.79,32.15Z"/><path class="cls-1" d="M195.78,27.72c-2.39-2.28-4.62-3.41-6.66-3.41a8.73,8.73,0,0,0-6.42,3.53c-1.62,2.12-1.79,4.54-1.79,7.44V46.56A6.94,6.94,0,0,1,174,53.49h0V18.66h6.93v4.1l.37-.61c2.73-4.3,7-5,10.13-4a8.89,8.89,0,0,1,4.36,2.59Z"/></g></g></svg>