<svg width="52" height="68" viewBox="0 0 52 68" fill="none" xmlns="http://www.w3.org/2000/svg">
<path d="M33.2944 21.3561C36.2071 20.3738 39.1966 17.7943 42.0836 21.1426C44.2445 23.6367 43.7406 27.3351 46.0638 30.3075L30.9883 33.7241C28.9383 29.0434 32.278 25.3962 33.2944 21.3561Z" fill="#DCDDDD"/>
<path d="M50.9577 20.1516C48.4721 9.08195 39.1535 1.06157 27.4261 0.0878483C16.57 -0.851706 6.00429 5.82767 1.87879 16.1713C-2.24671 26.5149 0.55487 38.1142 8.97669 44.9644C9.3696 45.2975 10.0785 45.9466 10.1042 45.9125C10.4885 45.5367 10.4629 45.2548 10.2921 45.0071C9.77104 44.2298 9.15606 43.4953 8.70337 42.6667C4.43267 34.9795 6.14095 31.6227 15.1863 28.1464L33.2941 21.3559C36.2067 20.3737 39.1962 17.7942 42.0832 21.1424C44.2442 23.6365 43.7402 27.3349 46.0635 30.3073L30.9879 33.7239C32.3545 39.2758 35.2586 41.9834 40.1357 42.1543C44.6285 42.3165 48.1903 39.7114 49.9498 34.8343C51.7098 30.1429 52.0602 25.0394 50.9577 20.1516Z" fill="#EFAD21"/>
<path d="M32.3376 54.8552C31.4803 54.8615 30.6243 54.9243 29.7752 55.0432C27.1098 55.3845 24.4117 55.3845 21.7463 55.0432C20.8972 54.9243 20.0412 54.8615 19.1839 54.8552H19.1326C18.6795 54.8552 18.245 55.0352 17.9247 55.3556C17.6043 55.676 17.4243 56.1105 17.4243 56.5635C17.2877 58.101 20.2088 60.6378 20.6188 63.5504C20.7938 64.785 21.4086 65.9148 22.3502 66.7323C23.2917 67.5498 24.4967 67.9999 25.7436 67.9999C26.9906 67.9999 28.1956 67.5498 29.1371 66.7323C30.0787 65.9148 30.6935 64.785 30.8685 63.5504C31.2785 60.6378 34.1911 58.101 34.0544 56.5635C34.0544 56.3385 34.01 56.1156 33.9236 55.9078C33.8372 55.7 33.7106 55.5113 33.5511 55.3526C33.3915 55.1938 33.2022 55.0682 32.994 54.9828C32.7857 54.8975 32.5627 54.8541 32.3376 54.8552Z" fill="#19B1A7"/>
</svg>
